<?xml version="1.0" standalone="no"?>
<!DOCTYPE svg PUBLIC "-//W3C//DTD SVG 20010904//EN"
 "http://www.w3.org/TR/2001/REC-SVG-20010904/DTD/svg10.dtd">
<svg version="1.0" xmlns="http://www.w3.org/2000/svg"
 width="96.000000pt" height="96.000000pt" viewBox="0 0 96.000000 96.000000"
 preserveAspectRatio="xMidYMid meet">
<metadata>
Created by potrace 1.14, written by Peter Selinger 2001-2017
</metadata>
<g transform="translate(0.000000,96.000000) scale(0.100000,-0.100000)"
fill="#000000" stroke="none">
<path d="M370 841 c-30 -10 -66 -24 -80 -32 -55 -32 -122 -106 -153 -169 -29
-59 -32 -73 -31 -160 0 -86 3 -101 32 -162 39 -81 121 -158 202 -190 41 -17
76 -22 140 -22 106 0 178 26 250 90 l50 46 0 -46 c0 -59 -1 -55 20 -96 22 -44
46 -65 93 -85 57 -24 67 -20 67 23 0 34 -4 39 -33 50 -59 21 -66 50 -70 282
-3 197 -4 207 -29 262 -82 177 -278 267 -458 209z"/>
</g>
</svg>
